<?xml version="1.0" encoding="utf-8"?>
<!-- Generator: Adobe Illustrator 24.2.3, SVG Export Plug-In . SVG Version: 6.00 Build 0)  -->
<svg version="1.1" id="Layer_1" xmlns="http://www.w3.org/2000/svg" xmlns:xlink="http://www.w3.org/1999/xlink" x="0px" y="0px"
	 viewBox="0 0 568 235.9" style="enable-background:new 0 0 568 235.9;" xml:space="preserve">
<style type="text/css">
	.st0{fill:#FFFFFF;}
</style>
<g id="Layer_5">
	<path class="st0" d="M5,231.1c3.2,0.1,530.8-5.1,530.8-5.1S528.7,10.2,267.9,4.3C-13.2-2.1,5,231.1,5,231.1z"/>
</g>
<g id="Layer_3">
	<g>
		<path d="M213.6,216.9c-15.5-1.5-30.9-3.1-46.4-4.9c-15.4-1.8-30.8-3.8-46.2-5.8c-15.4-2.1-30.8-4.2-46.1-6.8
			c-3.8-0.6-7.7-1.3-11.5-2l-5.7-1l-5.7-1.1c-7.6-1.5-15.3-3-22.8-4.9l0.1-1c7.8,0.3,15.6,0.9,23.3,1.6l5.8,0.5l5.8,0.6
			c3.9,0.4,7.7,0.8,11.6,1.3c15.4,1.7,30.8,4,46.2,6.3s30.7,4.7,46,7.4c15.3,2.7,30.6,5.4,45.8,8.8L213.6,216.9z"/>
	</g>
	<g>
		<path d="M232,214c-0.1,0-0.4-0.1-0.6-0.2l-0.7-0.2l-1.5-0.3l-3-0.6l-6.1-1.2l-12.1-2.4l-24.3-4.8l-24.2-5l-24.2-5.1
			c-16.1-3.5-32.3-6.9-48.3-10.7c-8-1.9-16-3.9-24-6c-4-1.1-8-2.1-11.9-3.3c-2-0.6-4-1.1-6-1.7c-1-0.3-2-0.6-3-0.9l-1.5-0.5
			l-0.7-0.2l-0.4-0.1l-0.2-0.1h-0.1h-0.1c0.4-0.1-0.8,0.4,0.1-1v1c0.9-1.4-0.2-0.8,0.2-1l0,0h0.1h0.2l0.4,0.1l0.8,0.1l1.5,0.2
			l3.1,0.5c2,0.3,4.1,0.6,6.1,0.9c4.1,0.6,8.1,1.3,12.2,2c8.1,1.4,16.2,3,24.3,4.6c16.2,3.3,32.2,7,48.3,10.6l24.1,5.6l24.1,5.8
			c8,2,16,4,24,6.1c4,1,8,2.1,12,3.2c2,0.6,4,1.1,6,1.7l3,0.9l1.5,0.5l0.7,0.3c0.3,0.1,0.5,0.2,0.8,0.4L232,214z"/>
	</g>
	<g>
		<path d="M270.6,216.9c-19.8-6.4-39.6-12.9-59.4-19.5l-29.6-9.9l-29.6-10c-19.7-6.7-39.4-13.4-59.1-20.3s-39.2-14-58.7-21.4
			l0.3-0.9C54.4,141,74.2,147.4,94,154c19.7,6.6,39.4,13.4,59.1,20.2l29.5,10.3l29.5,10.4c19.6,6.9,39.2,13.9,58.8,21.1L270.6,216.9
			z"/>
	</g>
	<g>
		<path d="M279.3,215.7l-55.2-25.8l-27.6-13L169,163.8c-18.3-8.8-36.7-17.5-54.9-26.5s-36.4-18.2-54.2-27.9l0.4-0.9
			c18.8,7.9,37.3,16.4,55.7,25c18.4,8.7,36.6,17.6,54.9,26.5l27.4,13.4l27.3,13.6c9.1,4.6,18.2,9.1,27.2,13.7
			c9.1,4.7,18.1,9.2,27.1,14.1L279.3,215.7z"/>
	</g>
	<g>
		<path d="M279.3,209.5c-7.2-5-14.4-10-21.5-15c-7.2-5-14.3-10.1-21.4-15.2L214.9,164l-21.3-15.3l-21.3-15.4
			c-7.1-5.1-14.2-10.3-21.2-15.5c-14.1-10.4-28-20.9-41.7-32L110,85c14.7,9.6,29,19.6,43.2,29.8c7.1,5.1,14.2,10.3,21.2,15.4
			l21.2,15.5l21.1,15.6l21.1,15.7c7,5.2,14.1,10.4,21,15.7c7,5.3,14,10.5,20.9,15.8L279.3,209.5z"/>
	</g>
	<g>
		<path d="M279.2,203.2c-13.4-10.7-26.4-21.8-39.4-33l-19.3-16.9l-9.6-8.6l-9.5-8.6c-6.3-5.8-12.6-11.5-18.9-17.4
			c-6.3-5.8-12.5-11.7-18.6-17.7S151.8,88.9,146,82.6c-5.8-6.3-11.6-12.7-17-19.4l0.7-0.7c7.1,4.9,13.9,10.2,20.5,15.6
			c6.7,5.4,13.2,10.9,19.6,16.6c6.4,5.7,12.7,11.4,18.9,17.3c6.2,5.8,12.5,11.7,18.6,17.6l9.3,8.9l9.2,8.9l18.3,18
			c12.1,12.1,24.1,24.3,35.7,37L279.2,203.2z"/>
	</g>
	<g>
		<path d="M279.2,192.7c0,0-0.1,0.1-0.1,0.2s0,0.1,0,0.1l0,0l-0.1-0.1c-0.1-0.1-0.1-0.2-0.2-0.3c-0.1-0.2-0.3-0.4-0.4-0.6
			c-0.3-0.4-0.6-0.8-0.9-1.2c-0.6-0.8-1.3-1.6-1.9-2.3l-3.9-4.6l-7.9-9.1L248,156.5c-10.5-12.2-21-24.4-31.4-36.7L201,101.3
			c-5.2-6.2-10.3-12.4-15.3-18.7l-3.8-4.7l-3.7-4.8c-2.5-3.2-5-6.3-7.4-9.5c-4.9-6.4-9.7-12.9-14.4-19.5l0.8-0.6
			C163,49.2,168.5,55,174,60.9c2.8,2.9,5.5,5.9,8.2,8.9l4,4.5l4,4.5c5.3,6,10.6,12.2,15.8,18.3l15.4,18.6
			c10.2,12.4,20.4,25,30.3,37.7c4.9,6.4,9.9,12.7,14.7,19.2c2.4,3.2,4.8,6.5,7.2,9.8c1.2,1.6,2.3,3.3,3.5,5c0.6,0.8,1.1,1.7,1.7,2.6
			c0.3,0.4,0.5,0.9,0.8,1.3c0.1,0.2,0.3,0.5,0.4,0.7c0.1,0.1,0.1,0.3,0.2,0.4c0,0.1,0.1,0.1,0.1,0.2s0,0.1,0,0.2c0,0,0,0.1,0,0.2
			s-0.1,0.2-0.1,0.3L279.2,192.7z"/>
	</g>
	<g>
		<path d="M279.1,184.4c0,0.1-0.1-0.2-0.2-0.4l-0.3-0.6l-0.7-1.2l-1.5-2.5l-3-4.9l-6.1-9.9L255,145.2c-8.1-13.2-16.3-26.4-24.3-39.7
			c-8-13.3-16-26.5-23.7-40s-15.3-27-22.3-40.8l0.9-0.5c9,12.7,17.4,25.7,25.6,38.9c8.3,13.1,16.2,26.5,24.1,39.8
			c7.9,13.4,15.6,26.8,23.3,40.3c3.8,6.8,7.6,13.5,11.2,20.4c1.8,3.4,3.7,6.8,5.4,10.3c0.9,1.7,1.8,3.4,2.6,5.2l1.3,2.6l0.6,1.3
			l0.3,0.7c0.1,0.3,0.2,0.4,0.2,1L279.1,184.4z"/>
	</g>
	<g>
		<path d="M279.1,173.3v0.1C279.1,173.5,279.1,173.4,279.1,173.3L279.1,173.3c-0.1-0.1-0.1-0.2-0.1-0.3c0-0.2-0.1-0.4-0.2-0.6
			l-0.4-1.2c-0.3-0.8-0.5-1.6-0.8-2.4l-1.7-4.9l-3.5-9.7l-7-19.5c-4.6-13-9.2-26-13.7-39L245,76.1c-2.2-6.5-4.4-13.1-6.5-19.6
			c-4.2-13.1-8.2-26.3-11.7-39.7l0.9-0.3c5.6,12.7,10.5,25.6,15.3,38.5c2.4,6.5,4.6,13,6.9,19.5l6.6,19.6
			c4.3,13.1,8.6,26.2,12.6,39.4c2,6.6,4,13.2,5.9,19.9c0.9,3.3,1.9,6.6,2.7,10c0.4,1.7,0.9,3.3,1.3,5c0.2,0.8,0.4,1.7,0.6,2.5
			l0.2,1.3c0,0.2,0.1,0.4,0.1,0.7c0,0.1,0,0.2,0,0.4c0,0.1,0,0.1,0,0.2v0.1c0,0.1-0.1,0.2-0.1,0.3L279.1,173.3z"/>
	</g>
	<g>
		<path d="M282.9,166.3l-0.6-2.4l-0.5-2.4c-0.4-1.6-0.7-3.2-1-4.8c-0.6-3.2-1.2-6.4-1.8-9.6c-0.6-3.2-1.1-6.4-1.6-9.6
			s-1.1-6.4-1.5-9.6c-1.9-12.8-3.7-25.6-5.2-38.5s-3-25.7-3.9-38.6c-0.5-6.5-0.8-12.9-1-19.4s-0.3-13-0.1-19.5l1-0.1
			c1.6,6.3,2.9,12.7,4.1,19.1c1.2,6.4,2.2,12.8,3.1,19.2c1.9,12.8,3.2,25.7,4.5,38.6s2.4,25.8,3.3,38.7c0.3,3.2,0.4,6.5,0.7,9.7
			c0.2,3.2,0.4,6.5,0.6,9.7c0.4,6.4,0.6,13,1,19.3L282.9,166.3z"/>
	</g>
	<g>
		<path d="M290.6,162.1c0-1.5,0.1-3,0.2-4.5s0.2-2.9,0.3-4.4c0.2-2.9,0.4-5.9,0.6-8.8c0.4-5.9,0.9-11.7,1.4-17.6l1.7-17.6l1.9-17.5
			l2-17.5c0.7-5.8,1.4-11.7,2.3-17.5s1.8-11.6,2.9-17.4c1.1-5.8,2.2-11.6,3.7-17.3l1,0.1c0,5.9-0.3,11.8-0.6,17.7
			c-0.3,5.9-0.8,11.7-1.4,17.6c-0.6,5.9-1.2,11.7-2,17.5l-2.2,17.5l-2.4,17.5l-2.6,17.5c-1.8,11.6-3.7,23.3-5.7,34.8h-1.1V162.1z"/>
	</g>
	<g>
		<path d="M296.9,161.9c3.1-10.6,6.4-21.1,9.8-31.5c3.4-10.5,6.9-20.9,10.4-31.3c1.8-5.2,3.6-10.4,5.4-15.6s3.6-10.4,5.5-15.6
			c3.8-10.3,7.9-20.6,12.9-30.5l0.9,0.3c-2.3,10.8-5.6,21.4-9.1,31.8c-1.8,5.2-3.7,10.4-5.5,15.6s-3.7,10.4-5.6,15.5
			c-3.8,10.3-7.6,20.6-11.5,30.9s-7.9,20.5-12.2,30.7L296.9,161.9z"/>
	</g>
	<g>
		<path d="M293.9,169.6C293.8,169.6,293.9,169.6,293.9,169.6c0.1-0.1,0.1-0.2,0.2-0.2c0.1-0.1,0.3-0.3,0.4-0.4
			c0.2-0.3,0.5-0.6,0.7-1c0.5-0.7,0.9-1.3,1.4-2l2.7-4.1l5.3-8.4l10.5-16.8c7-11.2,14.1-22.4,21.1-33.6c3.5-5.6,7.1-11.2,10.7-16.7
			c3.6-5.6,7.1-11.2,10.7-16.7c7.3-11,14.8-21.9,23.2-32.3l0.8,0.5c-5.9,12-12.6,23.4-19.6,34.6c-3.5,5.6-7.1,11.2-10.7,16.7
			s-7.2,11.1-10.9,16.6c-7.3,11-14.7,22-22.3,32.9c-3.8,5.4-7.6,10.8-11.5,16.2c-1.9,2.7-3.9,5.3-5.9,8c-1,1.3-2,2.6-3.1,3.9
			c-0.5,0.6-1.1,1.3-1.6,1.9c-0.3,0.3-0.6,0.6-0.9,0.9c-0.1,0.2-0.3,0.3-0.5,0.5c-0.1,0.1-0.2,0.2-0.3,0.2c-0.1,0.1-0.2,0.2-0.5,0.3
			L293.9,169.6z"/>
	</g>
	<g>
		<path d="M294,176.4C294,176.4,293.9,176.4,294,176.4l0.3-0.2c0.1-0.1,0.3-0.2,0.4-0.4c0.3-0.3,0.6-0.5,0.9-0.8
			c0.6-0.5,1.2-1.1,1.7-1.7l3.4-3.5l6.7-7l13.5-14l6.7-7l6.8-6.9c4.5-4.6,9-9.3,13.6-13.8l13.6-13.8l13.7-13.7
			c9.1-9.2,18.4-18.2,29.9-24.9l0.7,0.7c-6.8,11.5-15.9,20.7-25.2,29.7l-13.9,13.5L352.7,126c-4.7,4.5-9.4,8.9-14.2,13.3l-7.1,6.6
			l-7.2,6.5c-4.8,4.3-9.7,8.6-14.6,12.8c-2.5,2.1-5,4.2-7.5,6.2c-1.3,1-2.5,2-3.8,3c-0.6,0.5-1.3,1-2,1.5c-0.3,0.2-0.7,0.5-1,0.7
			c-0.2,0.1-0.3,0.2-0.5,0.3l-0.3,0.2c-0.1,0.1-0.3,0.1-0.5,0.2V176.4z"/>
	</g>
	<g>
		<path d="M305.8,179.4l2.1-1.6l2.1-1.7l4.2-3.3c2.8-2.2,5.6-4.4,8.4-6.6c5.6-4.4,11.3-8.6,16.9-13l17.1-12.8l17.2-12.6
			c11.6-8.3,23-16.7,34.7-24.6c5.9-4,11.8-7.9,17.9-11.6c6-3.8,12.1-7.4,18.4-10.9l0.6,0.8c-5.3,4.8-10.7,9.4-16.3,13.9
			c-5.5,4.5-11.1,8.8-16.8,13.1c-11.3,8.5-23.1,16.6-34.7,24.8L360,145.5l-17.7,11.9c-5.9,3.9-11.9,7.8-17.9,11.7
			c-3,1.9-6,3.8-9,5.7c-1.5,0.9-3,1.9-4.5,2.8l-2.3,1.4l-2.4,1.4L305.8,179.4z"/>
	</g>
	<g>
		<path d="M293.6,189.6c0.2-0.2,0.5-0.4,0.7-0.5l0.6-0.3l1.1-0.7l2.3-1.3c1.5-0.9,3.1-1.8,4.6-2.6l9.2-5.2
			c6.2-3.4,12.4-6.8,18.6-10.1l9.3-5l9.4-4.9c6.2-3.3,12.5-6.6,18.7-9.8c6.3-3.2,12.5-6.5,18.8-9.7l18.9-9.6
			c12.5-6.4,25.3-12.5,39-16.6l0.4,0.9c-11.5,8.5-24,15.1-36.6,21.3l-18.9,9.4l-19,9.3c-6.3,3.1-12.7,6.2-19,9.2l-9.5,4.6l-9.6,4.5
			l-19.1,9l-9.6,4.5l-4.8,2.2l-4.6,2.2L293.6,189.6z"/>
	</g>
	<g>
		<path d="M297.2,194.9l43.3-15.9c14.5-5.3,29-10.5,43.5-15.6c7.2-2.6,14.5-5.1,21.8-7.7c7.3-2.5,14.5-5.1,21.8-7.6s14.6-4.9,22-7.1
			s14.8-4.4,22.3-6.2l0.3,0.9c-7,3.2-14.2,6.1-21.3,8.9c-7.2,2.8-14.4,5.4-21.7,8c-7.3,2.6-14.6,5-21.8,7.5
			c-7.3,2.5-14.6,5-21.9,7.4c-14.6,4.9-29.2,9.8-43.8,14.5l-11,3.5l-11,3.4c-7.4,2.3-14.7,4.6-22.2,6.7L297.2,194.9z"/>
	</g>
	<g>
		<path d="M297,202.5c0.1-0.1,0.3-0.2,0.4-0.2l0.2-0.1l0.4-0.1l0.8-0.2l1.5-0.4l3.1-0.8c2.1-0.5,4.1-1,6.2-1.5l12.4-2.9l12.4-2.8
			l12.5-2.7c16.6-3.6,33.2-7.2,49.9-10.6c16.6-3.5,33.3-6.8,49.9-10.2c8.3-1.6,16.7-3.2,25.1-4.6s16.8-2.8,25.2-3.8l0.2,1
			c-8.2,2.3-16.5,4.3-24.8,6.2c-8.3,1.9-16.6,3.7-24.9,5.4c-16.7,3.3-33.3,6.7-50,9.9c-16.7,3.3-33.4,6.4-50,9.6l-12.5,2.4
			l-12.5,2.3l-12.5,2.4l-12.2,2.4L297,202.5z"/>
	</g>
	<g>
		<path d="M294,211.3c9.5-1.2,19.1-2.3,28.6-3.4l14.3-1.6l14.3-1.5c19.1-2,38.2-3.8,57.3-5.5l14.3-1.3l14.4-1.2
			c9.6-0.8,19.1-1.7,28.7-2.4c9.6-0.7,19.2-1.3,28.8-1.6c9.6-0.3,19.2-0.5,28.9-0.1l0.1,1c-9.5,1.9-19,3.3-28.5,4.5
			s-19.1,2.2-28.6,3.1c-9.6,0.8-19.1,1.5-28.7,2.3l-14.4,1.1l-14.4,1c-19.2,1.4-38.3,2.7-57.5,3.8l-14.4,0.8l-14.4,0.8
			c-9.6,0.5-19.2,0.9-28.8,1.3L294,211.3z"/>
	</g>
</g>
<g id="Layer_4">
	<path class="st0" d="M97.2,225.8c2.1,0,350.2-6.5,350.2-6.5s-11-134.5-182.5-127.6C93.4,98.6,97.2,225.8,97.2,225.8z"/>
</g>
<g id="Layer_1_1_">
	<g id="Layer_2_1_">
		<g>
			<g>
				<path d="M168.5,185.3c1.1,0.4,1.6,1.3,1.8,2.3c0.2,0.8-0.2,1.4-1.1,1.4c-0.8,0.1-1.5,0.2-2.3,0.4c-1.5,4.2-3.1,8.7-4.7,13.3
					c-0.3,1-1.2,1.4-1.8,0.5c-0.5-0.7-0.9-1.5-0.9-2.8c0-0.9,0.2-2.1,0.6-3.7c0.3-1.2,1-3.2,1.7-5.4c-3.1,1.3-6.2,2.8-8.5,3.4
					c-1.4,3.7-2.8,7.4-4.3,11c-0.3,1-1.2,1.4-1.8,0.6c-0.4-0.5-0.8-1.3-0.8-2.5c0-1.5,0.5-3.1,2.6-8.8c-1-0.3-1.4-0.8-1.6-1.1
					c-0.5-0.8-0.2-1.3,1.1-1.6c0.7-0.2,1-0.2,1.6-0.3c3-7.7,7.4-18.9,9.3-23.4c0.8-1.6,1.5-1.8,2-0.9c0.3,0.5,0.5,1.2,0.5,2.2
					c0,1.6-0.4,4.1-1.5,7.2c-1.7,4.5-3.4,8.8-5.1,12.9c3.1-1.4,5.6-3,8.3-4.1c3.1-8.4,7.1-19.6,9-23.9c0.9-1.8,1.6-2,2.1-0.7
					c0.3,0.6,0.5,1.3,0.5,2.3c0,1.8-0.4,4.5-1.8,8.2C170.6,179.8,169.5,182.5,168.5,185.3z"/>
				<path d="M183,172.8c1.8-0.5,3,0.4,3.4,2.1c0.3-0.8,0.6-1.6,0.9-2.4c0.6-1.5,1.4-1.8,2.1-1c0.9,1.2,1.4,4.2,0.2,8.1
					c-1.2,4.2-5.3,12.4-5.2,16.9c0,1,0.2,1.6,0.7,1.5c1.8-0.2,4.3-5.3,5.8-10.2c0.5-1.5,1-1.7,1.5-0.3c0.2,0.6,0.6,2.5-0.1,4.6
					c-1.2,4.1-4.4,8.2-7.5,8.6c-2.5,0.3-4-1.2-4.5-3.6c-1.4,2.1-3.7,4.4-5.7,4.7c-3,0.4-4.6-2-4.7-5.7c-0.1-2.7,0.8-6.3,2.5-10
					C176.4,177.9,180.4,173.5,183,172.8z M181.5,188.3c1.9-5,2.7-8.5,2.7-10.3c0-0.8-0.1-1.3-0.6-1.1c-1,0.3-4.4,5.4-6.8,11.3
					c-1.4,3.4-2.2,6.9-2.2,9c0,1.2,0.2,1.9,0.7,1.8C176.9,198.7,179.2,194.4,181.5,188.3z"/>
				<path d="M207.1,186.3c-1.1,4.3-2.8,7.9-4.3,9.9c3.8-1.5,6.6-6.8,8-11.4c0.6-1.8,1.7-1.6,1.9-0.1c0.1,0.8,0.2,2.9-0.6,5.3
					c-2.2,6.5-6.4,8.9-10.7,9.3c-4,0.4-6.6-1.3-7.8-4.9c-2.1,6.1-4.2,12.4-6.1,19.2c-0.4,1.3-1,1.6-1.5,0.8
					c-0.8-1.3-1.1-2.2-1.1-3.6c0-1.1,0.1-2.5,0.5-4.5c1.3-6.3,9.2-29.6,12.2-36.6c0.9-1.8,1.5-1.7,2-1c0.4,0.7,0.5,1.6,0.6,2.6
					c1.2-1.5,2.7-2.8,4.1-3.1c3.1-0.7,4.6,3.1,4.7,7C208.9,178.5,208.2,182.5,207.1,186.3z M196.7,185c-1.5,4.9-1,10,0.3,9.8
					c1.6-0.2,3.8-4.5,5.7-10.9c1.1-3.7,1.7-7.6,1.6-10c0-1.3-0.2-2.2-0.4-2.3c-0.9-0.4-3.7,3.6-5.7,9.3
					C197.8,182.2,197.2,183.6,196.7,185z"/>
				<path d="M227,184c-1.2,4.5-2.8,8.2-4.4,10.4c3.8-1.5,6.6-7,8-11.8c0.6-1.9,1.7-1.6,1.9,0c0.1,0.8,0.2,3.1-0.6,5.5
					c-2.2,6.7-6.5,9.2-10.7,9.5c-4,0.3-6.6-1.6-7.9-5.6c-2.1,6.5-4.2,13.2-6.2,20.7c-0.4,1.4-1,1.7-1.5,0.8c-0.8-1.4-1.1-2.4-1.1-4
					c0-1.2,0.1-2.8,0.5-4.9c1.3-7,9.3-31.7,12.3-38.9c0.9-1.9,1.6-1.7,2-0.9c0.4,0.8,0.6,1.8,0.6,2.8c1.3-1.5,2.7-2.8,4.1-3
					c3.1-0.5,4.7,3.7,4.7,7.8C228.9,175.9,228.1,180,227,184z M216.6,182.1c-1.5,5.2-1,10.7,0.3,10.5c1.6-0.1,3.8-4.6,5.8-11.4
					c1.2-3.8,1.7-8,1.7-10.6c0-1.4-0.1-2.4-0.4-2.5c-0.9-0.5-3.7,3.6-5.8,9.5C217.7,179.1,217.2,180.6,216.6,182.1z"/>
				<path d="M250.8,185.9c-2,5.2-5.4,8.4-9.6,11.3c-2.7,11-6,24-10.4,26.6c-1.2,0.7-2.2,0.7-3.5-1.8c-0.8-1.7-1.6-4-1.6-6.6
					c0-1,0.1-2.3,0.4-3.7c1.5-6.9,5.5-12,10.5-15.4c0.2-1,0.5-1.9,0.7-2.9c-1.3,1.6-2.6,2.4-4.2,2.5c-2.6,0.1-3.7-2.8-3.8-6.2
					c0-1.7,0.1-3.6,0.6-5.7c1.1-5.2,3.5-13.5,6.6-20.8c0.7-1.5,1.4-1.6,2-0.4c0.5,1.1,1,2.5,1,3.8c0,2-0.6,4.5-1.7,7.6
					c-1.7,4.6-2.7,8-3.7,11.9c-0.7,3-1.1,6.2,0.2,6.1s3.6-5,6-12c3.3-9.5,4.7-14.7,5.9-17.8c0.7-1.5,1.4-1.8,2-0.9
					c0.8,1.2,1,2.4,1,4.2c0,1.7-0.2,3.5-0.9,5.6c-1.5,4.7-4.1,12.9-6.1,20.8c3.1-3.2,5.7-7.6,7.4-11.4c0.7-1.5,1.4-1.7,1.7-0.7
					C251.7,181.6,251.6,183.7,250.8,185.9z M230.2,211.2c-1.2,3.8-1.5,7.1-1,7.8c0.4,0.5,1.4-1.9,2.8-5.8c1-3,2.2-7,3.4-11.4
					C232.9,204.5,231.2,208,230.2,211.2z"/>
				<path d="M282.9,176.1c0.3,0.9,0.4,1.9,0.4,2.8c0,4.9-2.8,9.7-4.7,12c-2.1,2.4-4.4,3.4-6.7,3.5c-1.7,0-3.3-0.6-4.5-1.7
					c-2.4-2.1-4.6-7.3-4.7-14.2c-0.3-16.9,9-32.5,15-36.8c1.4-0.8,2.8-1.4,4.2-1.4c1.3,0,2.5,0.7,3.4,1.9c1.8,2.6,3.1,5.9,3.1,9.2
					c0,1.5-0.2,3.2-0.8,4.8c-0.9,2.8-1.6,5.7-2,7.5c-0.3,1.4-1,2.2-2,1.2c-1-1.1-1.8-3-1.8-5.4c0-1,0.1-2,0.3-3.1
					c0.2-1.3,0.6-2.6,0.9-3.9c0.7-2.9,1.4-5.6,0.8-6.7c-1.3-2.3-8.7,5-13.1,16.4c-2.3,6-3.2,12.9-3.2,18c0,7.2,2,10.4,3.9,10.4
					c2.8,0,6.5-5.4,9.5-14.7C281.2,174.7,282.4,174.2,282.9,176.1z"/>
				<path d="M299,160.8c1.9,0.1,3,1.7,3.5,3.9c0.3-0.8,0.7-1.7,1-2.5c0.6-1.6,1.5-1.6,2.1-0.4c0.9,1.7,1.3,5.4-0.1,9.6
					c-1.4,4.4-5.8,13.2-5.9,18.8c0,1.2,0.2,2,0.7,2c1.9,0.1,4.5-5.5,6.3-10.7c0.6-1.6,1.1-1.7,1.6,0.1c0.2,0.8,0.5,3-0.3,5.3
					c-1.4,4.4-4.7,8.7-7.9,8.6c-2.6-0.1-4.1-2.3-4.4-5.4c-1.5,2.3-3.9,4.8-5.9,4.8c-3-0.1-4.7-3.7-4.7-8.7c0-3.6,1-8.3,2.9-12.5
					C292,164.3,296.3,160.6,299,160.8z M297,179.3c2.1-5.6,3-9.6,3.1-11.8c0-1-0.1-1.6-0.6-1.6c-1-0.1-4.7,5-7.4,11.8
					c-1.6,3.9-2.5,8.3-2.5,11c0,1.5,0.2,2.5,0.7,2.5C292,191.3,294.4,186.2,297,179.3z"/>
				<path d="M316.1,166.9c0,0.6-0.1,1.4-0.2,2.2c2.3-3.2,5.2-5.9,6.9-5.6c1.7,0.2,2.7,3.3,2.6,6.6c2.4-2.9,5.2-5.1,6.8-4.8
					c1.5,0.3,2.3,2.6,2.2,5.1c-0.1,2.6-1.2,6-3.4,10.7c-1.5,3.2-2.9,6.6-3,9.3c0,1.8,0.5,3.1,1.3,3.2c1.6,0.1,4.2-5.1,6.2-9.6
					c0.5-1.1,1-1.1,1.4-0.4c0.5,0.9,0.5,3.8-0.1,5.5c-1.5,4.3-5.2,7.9-8.4,7.7c-3.5-0.2-5.3-3.3-5.3-7.6c0-1.4,0.3-3.2,0.9-5.1
					c0.9-2.6,2.6-6.8,3.9-9.4c1.2-2.5,2.5-4.6,2.1-4.7s-1.5,0.5-4.6,4.9c-4.1,5.7-6.7,13.2-9,20.6c-0.5,1.5-1.3,1.7-2.1,0.4
					c-0.8-1.3-1.1-2.4-1.1-4.5c0-1.4,0.5-4,1-6c0.8-2.9,2.5-7.1,4-10.4c1.5-3.5,3-6.4,2.5-6.4c-0.4,0-2.5,1.5-5.6,6.5
					c-3,4.6-5.4,11.9-7.5,19.4c-0.4,1.3-0.9,1.8-1.8,0.5c-0.7-1-1.2-2.5-1.2-4.4c0-1.2,0.2-2.6,0.6-4.4c1.1-4.9,5-16.1,8.3-23.4
					c0.7-1.5,1.5-1.3,2,0.2C315.8,164.2,316.1,165.6,316.1,166.9z"/>
				<path d="M351.9,187.4c-1.3,3.8-3.1,6.9-4.7,8.7c3.8-0.7,6.8-5.2,8.4-9.1c0.6-1.6,1.7-1,1.9,0.5c0.1,0.7,0.1,2.7-0.8,4.7
					c-2.4,5.5-6.7,7.1-11,6.7c-4-0.4-6.5-2.6-7.6-6.9c-2.4,6.1-4.7,12.6-7,20.2c-0.4,1.4-1.1,1.7-1.5,0.7c-0.7-1.5-1-2.6-0.9-4.3
					c0-1.3,0.2-2.9,0.7-5.1c1.6-7.6,10.6-30.8,13.9-36.2c1-1.5,1.6-1,2-0.1s0.5,1.9,0.5,2.9c1.3-1,2.8-1.7,4.2-1.4
					c3.1,0.7,4.4,4.9,4.4,8.6C354,180.5,353.1,184,351.9,187.4z M341.7,182.9c-1.7,4.6-1.4,10.2-0.1,10.3c1.6,0.2,4-3.8,6.2-9.6
					c1.3-3.3,2-6.9,2.1-9.4c0-1.3-0.1-2.2-0.3-2.4c-0.9-0.8-3.8,2-6.1,7.2C342.8,180.4,342.2,181.7,341.7,182.9z"/>
				<path d="M389.5,197.6c-1.3,3.3-5.1,5.4-8,4.9c-3.2-0.4-4.9-3.5-4.8-7.3c0-1,0.2-2.2,0.6-3.4c0.9-3.3,3-6.3,5-8.7
					c-1.4,0.4-2.6,0.3-3.7,0c-4.3,9.7-9.9,17.2-16.1,16.7c-4.7-0.5-7.2-5.1-7-10.8c0.1-2.5,0.6-5.3,1.7-8c2.8-6.8,7.1-9.6,9.9-8.8
					c0.7,0.2,1.2,0.5,1.7,1c1.3,1.5,2.3,2.8,3,4.3c0.2,0.7,0.4,1.5,0.4,2.3c0,1.9-0.9,4.4-2.3,6.5c-1.5,2.1-3.5,3.5-5.7,3.1
					c-1.2-0.2-2.4-0.8-3.6-2.2c-0.3,1.4-0.5,2.8-0.6,4.1c-0.1,3.2,0.8,5.5,2.2,5.7c5.1,0.6,10.6-8.3,13.4-15.4
					c-0.9-0.9-1.4-2.1-1.3-3.2c0.1-3.5,3.5-7.2,5.2-6.6c1,0.4,1.4,1.3,1.4,2.7c0,1.3-0.5,3.1-1.1,5c1.4,0,2.7-0.5,4.4-1.3
					c0.8-0.4,1.5-0.5,2.1,0.6c0.6,1.2,1.4,3.1,1.4,4.6c0,0.7-0.3,1.4-0.9,2c-2.2,2.4-4.7,6-5.7,9c-0.2,0.8-0.4,1.9-0.4,2.6
					c0,1.6,0.4,2.8,1.1,2.9c1.8,0.3,4.7-2.9,6.3-6.7c0.5-1,1.2-1.1,1.7,0.3C390.1,194.5,390.2,196.1,389.5,197.6z M361.4,185
					c0.4,0.4,0.8,0.6,1.1,0.6c1.3,0.2,2.7-1.5,3.8-3.1c1.5-2.2,2.7-5.2,2.2-5.8c-0.9-1.2-4.4,1.9-6.6,7.1
					C361.6,184.4,361.5,184.6,361.4,185z"/>
				<path d="M388.6,190.6c1-0.7,1.8-0.2,1.9,1.2c1.7-2.3,3.4-4.8,4.8-6.7c0.2-2,0.8-3,2-3.6c0.8-0.5,1.7-0.5,2.4-0.2
					c1.3,0.6,1.6,1.8,0.1,4c-0.1,0.6-0.1,1.5-0.1,2.2c0,3.8,0.6,7.5,0.5,10.4c-0.1,1.3-0.3,2.8-0.9,3.8c2.1-1.1,3.4-2.5,4.3-4.8
					c0.4-1.1,1.2-0.5,1.5,0.4c0.2,0.6,0.4,2-0.5,3.4c-1.9,3.1-5.4,4.5-9.1,4.1c-3-0.4-6-1.8-7.7-5.8c-0.5-1.2-0.8-2.7-0.8-4.1
					C386.9,193.1,387.5,191.5,388.6,190.6z M395.2,195.7c0-1.8,0-3.6-0.1-5.1c-1.2,1.8-2.6,3.9-4.2,6c0.6,2.9,1.6,5.1,2.7,5.3
					C394.7,202.1,395.2,199.4,395.2,195.7z"/>
			</g>
		</g>
		<g>
			<path d="M116,225.8c0-0.8,0-1.3,0.1-1.9l0.1-1.8c0.1-1.2,0.2-2.3,0.3-3.5c0.3-2.3,0.6-4.6,1-6.9c0.8-4.6,1.9-9.1,3.1-13.5
				c2.6-8.9,6.1-17.5,10.5-25.6s9.8-15.7,16-22.6s13.1-13,20.7-18.3c15.1-10.6,32.3-17.7,49.9-22.1s35.7-6.2,53.7-6.4
				c18-0.2,36.1,1.1,53.7,5.2c17.6,4,34.9,10.7,50.1,20.9c15.2,10.2,28,23.9,37,39.7c4.5,7.9,8.2,16.3,10.9,25
				c1.4,4.3,2.5,8.7,3.4,13.2c0.4,2.2,0.8,4.5,1.1,6.7c0.2,1.1,0.3,2.3,0.4,3.4c0.1,1.2,0.2,2.3,0.3,3.5l-6.4,0.2
				c0-0.9-0.2-2-0.3-3.1c-0.1-1.1-0.3-2.1-0.4-3.2c-0.3-2.1-0.7-4.2-1.1-6.3c-0.9-4.2-2-8.4-3.4-12.5c-2.7-8.2-6.2-16.1-10.6-23.5
				c-8.7-14.8-20.8-27.5-35.2-36.9c-14.3-9.4-30.7-15.7-47.6-19.3c-16.9-3.7-34.4-4.8-51.8-4.4s-34.8,2.4-51.5,6.7
				c-16.7,4.4-32.7,11.2-46.5,21.1s-25.3,22.9-33.2,37.9c-4,7.5-7.1,15.4-9.4,23.6c-1.1,4.1-2.1,8.2-2.7,12.4
				c-0.3,2.1-0.6,4.2-0.8,6.3c-0.1,1-0.2,2.1-0.3,3.1l-0.1,1.5c0,0.5,0,1.1,0,1.4L116,225.8z"/>
		</g>
	</g>
</g>
</svg>
